<?xml version="1.0" encoding="UTF-8"?> <svg xmlns="http://www.w3.org/2000/svg" xmlns:xlink="http://www.w3.org/1999/xlink" viewBox="0 0 480.51 580.77"><defs><style>.cls-1,.cls-2{fill:#eaf0f4;}.cls-1{fill-rule:evenodd;}.cls-3{fill:url(#linear-gradient);}.cls-4{fill:url(#linear-gradient-2);}.cls-5{fill:url(#linear-gradient-3);}.cls-6{opacity:0.9;}.cls-7{fill:url(#linear-gradient-4);}.cls-8{fill:url(#linear-gradient-5);}.cls-9{fill:url(#linear-gradient-6);}.cls-10{opacity:0.8;}.cls-11{fill:url(#linear-gradient-7);}.cls-12{fill:url(#linear-gradient-8);}.cls-13{fill:url(#linear-gradient-9);}.cls-14{fill:#fff;}.cls-15{fill:#c9d9e4;}.cls-16{fill:#8c8c8c;}.cls-17{fill:#343434;}.cls-18{fill:#393939;}.cls-19{fill:#151515;}</style><linearGradient id="linear-gradient" y1="457.22" x2="480.48" y2="457.22" gradientUnits="userSpaceOnUse"><stop offset="0" stop-color="#30daad"></stop><stop offset="1" stop-color="#2c56dd"></stop></linearGradient><linearGradient id="linear-gradient-2" x1="240.46" y1="512.21" x2="480.51" y2="512.21" xlink:href="#linear-gradient"></linearGradient><linearGradient id="linear-gradient-3" x1="0.4" y1="512.21" x2="240.46" y2="512.21" xlink:href="#linear-gradient"></linearGradient><linearGradient id="linear-gradient-4" y1="378.92" x2="480.48" y2="378.92" xlink:href="#linear-gradient"></linearGradient><linearGradient id="linear-gradient-5" x1="240.46" y1="433.91" x2="480.51" y2="433.91" xlink:href="#linear-gradient"></linearGradient><linearGradient id="linear-gradient-6" x1="0.4" y1="433.91" x2="240.46" y2="433.91" xlink:href="#linear-gradient"></linearGradient><linearGradient id="linear-gradient-7" y1="300.62" x2="480.48" y2="300.62" xlink:href="#linear-gradient"></linearGradient><linearGradient id="linear-gradient-8" x1="240.46" y1="355.61" x2="480.51" y2="355.61" xlink:href="#linear-gradient"></linearGradient><linearGradient id="linear-gradient-9" x1="0.4" y1="355.61" x2="240.46" y2="355.61" xlink:href="#linear-gradient"></linearGradient></defs><g id="Layer_2" data-name="Layer 2"><g id="Layer_1-2" data-name="Layer 1"><path class="cls-1" d="M293.74,75a10.77,10.77,0,0,1,10.77-10.77h0A10.77,10.77,0,1,1,293.74,75Z"></path><path class="cls-1" d="M301.48,51.91a10.77,10.77,0,1,0-14.75-4l.06.09a10.75,10.75,0,0,0,14.68,3.93h0Z"></path><path class="cls-1" d="M175.44,37.22A10.77,10.77,0,0,1,194.09,48v0a10.78,10.78,0,0,1-18.65-10.81Z"></path><path class="cls-1" d="M207.82,30.33a10.77,10.77,0,1,0-5.3-20.15h0l-.18.11a10.77,10.77,0,0,0,5.5,20Z"></path><circle class="cls-2" cx="240.16" cy="10.77" r="10.77" transform="translate(15.84 97.23) rotate(-23.65)"></circle><path class="cls-1" d="M267.18,29.28l.14.08a11.36,11.36,0,0,0,15.13-4.88,10.93,10.93,0,0,0-3.9-14.24A11.38,11.38,0,0,0,263.37,15,10.92,10.92,0,0,0,267.18,29.28Z"></path><path class="cls-1" d="M165.23,74.82a10.86,10.86,0,1,1,0,.22Z"></path><polygon class="cls-3" points="240.24 532.86 0 443.65 240.24 381.58 480.48 443.65 240.24 532.86"></polygon><polygon class="cls-4" points="240.46 532.86 240.46 580.77 480.51 487.89 480.51 443.65 240.46 532.86"></polygon><polygon class="cls-5" points="240.46 532.86 240.46 580.77 0.4 487.89 0.4 443.65 240.46 532.86"></polygon><g class="cls-6"><polygon class="cls-7" points="240.24 454.56 0 365.35 240.24 303.28 480.48 365.35 240.24 454.56"></polygon><polygon class="cls-8" points="240.46 454.56 240.46 502.47 480.51 409.59 480.51 365.35 240.46 454.56"></polygon><polygon class="cls-9" points="240.46 454.56 240.46 502.47 0.4 409.59 0.4 365.35 240.46 454.56"></polygon></g><g class="cls-10"><polygon class="cls-11" points="240.24 376.26 0 287.05 240.24 224.98 480.48 287.05 240.24 376.26"></polygon><polygon class="cls-12" points="240.46 376.26 240.46 424.17 480.51 331.29 480.51 287.05 240.46 376.26"></polygon><polygon class="cls-13" points="240.46 376.26 240.46 424.17 0.4 331.29 0.4 287.05 240.46 376.26"></polygon></g><polygon class="cls-2" points="240.25 306.42 153.5 274.21 240.25 251.8 327 274.21 240.25 306.42"></polygon><polygon class="cls-14" points="240.33 306.42 240.33 323.72 327.01 290.19 327.01 274.21 240.33 306.42"></polygon><polygon class="cls-15" points="240.33 306.42 240.33 323.72 153.64 290.19 153.64 274.21 240.33 306.42"></polygon><path class="cls-16" d="M168,162.59l72.22,42.67V42.76Z"></path><path class="cls-17" d="M240.23,42.76v162.5l72.2-42.67Z"></path><path class="cls-16" d="M168,176.28,240.2,278V218.94Z"></path><path class="cls-17" d="M240.2,218.94V278l72.25-101.74Z"></path><path class="cls-18" d="M240.25,129.75,168,162.59l72.22,42.67.18-42.67Z"></path><path class="cls-19" d="M240.31,129.75l72.22,32.84-72.22,42.67-.18-42.67Z"></path></g></g></svg> 